<?xml version="1.0" encoding="utf-8"?>
<!-- Generator: Adobe Illustrator 25.2.3, SVG Export Plug-In . SVG Version: 6.00 Build 0)  -->
<svg version="1.1" xmlns="http://www.w3.org/2000/svg" xmlns:xlink="http://www.w3.org/1999/xlink" x="0px" y="0px"
	 viewBox="0 0 20 9" style="enable-background:new 0 0 20 9;" xml:space="preserve">
<style type="text/css">
	.st0{display:none;}
	.st1{display:inline;}
	.st2{font-family:'NotoSerif-Bold';}
	.st3{font-size:12px;}
</style>
<g id="Layer_1" class="st0">
	<g id="curves" transform="matrix(1.35564,0,0,1.35564,0,0)" class="st1">
		<g transform="matrix(8.96673,0,0,8.96673,-0.455342,6.52125)">
			<path d="M0.4-0.7V0H0.2v-0.6h0L0.1-0.5v-0.1l0.2-0.1H0.4z"/>
		</g>
		<g transform="matrix(8.96673,0,0,8.96673,2.44001,6.52125)">
			<path d="M0.4-0.7V0H0.2v-0.6h0L0.1-0.5v-0.1l0.2-0.1H0.4z"/>
		</g>
		<g transform="matrix(8.96673,0,0,8.96673,5.05685,6.52125)">
			<path d="M0-0.6v-0.1h0.6v0.1H0.4V0H0.3v-0.6H0z"/>
		</g>
		<g transform="matrix(8.96673,0,0,8.96673,8.2638,6.52125)">
			<path d="M0.2,0H0l0.3-0.7h0.2L0.7,0H0.6L0.4-0.6h0L0.2,0z M0.2-0.3h0.4v0.1H0.2V-0.3z"/>
		</g>
	</g>
</g>
<g id="Layer_2">
	<text transform="matrix(0.7653 0 0 1 9.765625e-04 8.8066)" class="st2 st3">NFG</text>
</g>
</svg>
