<?xml version="1.0" encoding="utf-8"?>
<!-- Generator: Adobe Illustrator 25.2.3, SVG Export Plug-In . SVG Version: 6.00 Build 0)  -->
<svg version="1.1" xmlns="http://www.w3.org/2000/svg" xmlns:xlink="http://www.w3.org/1999/xlink" x="0px" y="0px"
	 viewBox="0 0 1000 102" style="enable-background:new 0 0 1000 102;" xml:space="preserve">
<style type="text/css">
	.st0{display:none;}
	.st1{display:inline;}
	.st2{font-family:'NotoSerif-Bold';}
	.st3{font-size:121.1875px;}
</style>
<g id="Layer_1" class="st0">
	<g id="curves" transform="matrix(1.33631,0,0,1.33631,-301.749,-65.4924)" class="st1">
		<g transform="matrix(78.1985,0,0,78.1985,221.836,109.131)">
			<path d="M0.4-0.7V0H0.2v-0.6h0L0.1-0.5v-0.1l0.2-0.1H0.4z"/>
		</g>
		<g transform="matrix(78.1985,0,0,78.1985,260.102,109.131)">
			<path d="M0.4-0.7V0H0.2v-0.6h0L0.1-0.5v-0.1l0.2-0.1H0.4z"/>
		</g>
		<g transform="matrix(78.1985,0,0,78.1985,298.369,109.131)">
			<path d="M0.4-0.5v0.1H0v-0.1H0.4z M0.1-0.7h0.2v0.5c0,0,0,0,0,0c0,0,0,0,0,0c0,0,0,0,0,0c0,0,0,0,0,0c0,0,0,0,0,0l0,0.1
				c0,0,0,0,0,0c0,0,0,0-0.1,0c0,0-0.1,0-0.1,0c0,0,0,0-0.1-0.1s0-0.1,0-0.1V-0.7z"/>
		</g>
		<g transform="matrix(78.1985,0,0,78.1985,328.748,109.131)">
			<path d="M0.2,0.2C0.1,0.2,0.1,0.2,0.2,0.2C0.1,0.2,0.1,0.2,0.2,0.2L0.1,0.1c0,0,0,0,0.1,0c0,0,0,0,0,0l0,0L0-0.5h0.2l0.1,0.4h0
				l0.1-0.4h0.2L0.4,0.1c0,0,0,0.1,0,0.1C0.3,0.2,0.3,0.2,0.2,0.2C0.2,0.2,0.2,0.2,0.2,0.2z"/>
		</g>
		<g transform="matrix(78.1985,0,0,78.1985,392.701,109.131)">
			<path d="M0-0.6v-0.1h0.6v0.1H0.4V0H0.3v-0.6H0z"/>
		</g>
		<g transform="matrix(78.1985,0,0,78.1985,439.187,109.131)">
			<path d="M0.2,0C0.2,0,0.2,0,0.2,0C0.1,0,0.1,0,0.1-0.1c0,0,0-0.1,0-0.1c0,0,0-0.1,0-0.1c0,0,0,0,0,0c0,0,0,0,0.1,0
				c0,0,0.1,0,0.1,0c0,0,0.1,0,0.1,0c0,0,0,0,0,0c0,0,0,0,0,0v0c0,0,0,0,0-0.1c0,0,0,0-0.1,0c0,0,0,0-0.1,0s0,0,0,0l-0.1,0
				c0,0,0-0.1,0-0.1c0,0,0,0,0.1-0.1s0.1,0,0.1,0c0,0,0.1,0,0.1,0c0,0,0.1,0,0.1,0c0,0,0,0,0.1,0.1c0,0,0,0.1,0,0.1V0H0.4v-0.1h0
				c0,0,0,0,0,0C0.3,0,0.3,0,0.2,0C0.3,0,0.2,0,0.2,0z M0.3-0.1C0.3-0.1,0.3-0.1,0.3-0.1C0.3-0.1,0.3-0.1,0.3-0.1
				c0.1-0.1,0.1-0.1,0.1-0.1v-0.1c0,0,0,0,0,0c0,0,0,0,0,0c0,0,0,0,0,0c0,0,0,0,0,0c0,0,0,0,0,0C0.2-0.2,0.2-0.2,0.3-0.1
				C0.2-0.2,0.2-0.2,0.3-0.1C0.2-0.1,0.2-0.1,0.3-0.1C0.2-0.1,0.2-0.1,0.3-0.1z"/>
		</g>
		<g transform="matrix(78.1985,0,0,78.1985,484.562,109.131)">
			<path d="M0.1,0v-0.5h0.2V0H0.1z M0.1-0.6C0.1-0.6,0.1-0.6,0.1-0.6C0.1-0.7,0.1-0.7,0.1-0.6C0.1-0.7,0.1-0.7,0.1-0.7s0,0,0.1,0
				c0,0,0,0,0.1,0S0.2-0.7,0.1-0.6C0.2-0.7,0.2-0.7,0.1-0.6C0.2-0.6,0.2-0.6,0.1-0.6z"/>
		</g>
		<g transform="matrix(78.1985,0,0,78.1985,505.834,109.131)">
			<rect x="0.1" y="-0.7" width="0.2" height="0.7"/>
		</g>
		<g transform="matrix(78.1985,0,0,78.1985,527.105,109.131)">
			<path d="M0.2,0L0-0.5h0.2l0.1,0.4h0l0.1-0.4h0.2l0.1,0.4h0l0.1-0.4h0.2L0.7,0H0.5L0.4-0.3h0L0.3,0H0.2z"/>
		</g>
		<g transform="matrix(78.1985,0,0,78.1985,593.585,109.131)">
			<path d="M0.1,0v-0.5h0.2V0H0.1z M0.1-0.6C0.1-0.6,0.1-0.6,0.1-0.6C0.1-0.7,0.1-0.7,0.1-0.6C0.1-0.7,0.1-0.7,0.1-0.7s0,0,0.1,0
				c0,0,0,0,0.1,0S0.2-0.7,0.1-0.6C0.2-0.7,0.2-0.7,0.1-0.6C0.2-0.6,0.2-0.6,0.1-0.6z"/>
		</g>
		<g transform="matrix(78.1985,0,0,78.1985,614.856,109.131)">
			<path d="M0.2-0.3V0H0.1v-0.5h0.1v0.1h0c0,0,0-0.1,0.1-0.1c0,0,0.1,0,0.1,0c0,0,0.1,0,0.1,0c0,0,0,0,0.1,0.1c0,0,0,0.1,0,0.1V0
				H0.4v-0.3c0,0,0-0.1,0-0.1c0,0,0,0-0.1,0C0.3-0.4,0.3-0.4,0.2-0.3C0.2-0.4,0.2-0.4,0.2-0.3C0.2-0.4,0.2-0.3,0.2-0.3z"/>
		</g>
		<g transform="matrix(78.1985,0,0,78.1985,663.48,109.131)">
			<path d="M0.3,0c0,0-0.1,0-0.1,0c0,0-0.1-0.1-0.1-0.1c0,0,0-0.1,0-0.2c0-0.1,0-0.1,0-0.2c0,0,0-0.1,0.1-0.1c0,0,0.1,0,0.1,0
				c0,0,0.1,0,0.1,0c0,0,0,0,0,0c0,0,0,0,0,0h0v-0.3h0.2V0H0.4v-0.1h0c0,0,0,0,0,0C0.4,0,0.4,0,0.3,0C0.3,0,0.3,0,0.3,0z M0.3-0.1
				C0.3-0.1,0.4-0.1,0.3-0.1c0.1,0,0.1-0.1,0.1-0.1s0-0.1,0-0.1c0,0,0-0.1,0-0.1c0,0,0,0,0-0.1c0,0,0,0-0.1,0c0,0,0,0-0.1,0
				c0,0,0,0,0,0.1c0,0,0,0.1,0,0.1c0,0,0,0.1,0,0.1C0.2-0.2,0.2-0.1,0.3-0.1C0.3-0.1,0.3-0.1,0.3-0.1z"/>
		</g>
		<g transform="matrix(78.1985,0,0,78.1985,731.293,109.131)">
			<path d="M0.2,0H0l0.3-0.7h0.2L0.7,0H0.6L0.4-0.6h0L0.2,0z M0.2-0.3h0.4v0.1H0.2V-0.3z"/>
		</g>
		<g transform="matrix(78.1985,0,0,78.1985,789.775,109.131)">
			<rect x="0.1" y="-0.7" width="0.2" height="0.7"/>
		</g>
		<g transform="matrix(78.1985,0,0,78.1985,811.047,109.131)">
			<path d="M0.1,0.2v-0.8h0.1v0.1h0c0,0,0,0,0,0c0,0,0,0,0,0c0,0,0,0,0.1,0c0,0,0.1,0,0.1,0c0,0,0.1,0.1,0.1,0.1c0,0,0,0.1,0,0.2
				c0,0.1,0,0.1,0,0.2c0,0,0,0.1-0.1,0.1c0,0-0.1,0-0.1,0c0,0-0.1,0-0.1,0c0,0,0,0,0,0c0,0,0,0,0,0h0v0.3H0.1z M0.2-0.3
				C0.2-0.2,0.2-0.2,0.2-0.3c0,0.1,0,0.1,0.1,0.1c0,0,0,0,0.1,0c0,0,0,0,0.1,0c0,0,0,0,0-0.1c0,0,0-0.1,0-0.1c0,0,0-0.1,0-0.1
				c0,0,0,0,0-0.1c0,0,0,0-0.1,0c0,0,0,0-0.1,0C0.2-0.4,0.2-0.4,0.2-0.3C0.2-0.3,0.2-0.3,0.2-0.3z"/>
		</g>
		<g transform="matrix(78.1985,0,0,78.1985,860.504,109.131)">
			<path d="M0.1,0v-0.5h0.2V0H0.1z M0.1-0.6C0.1-0.6,0.1-0.6,0.1-0.6C0.1-0.7,0.1-0.7,0.1-0.6C0.1-0.7,0.1-0.7,0.1-0.7s0,0,0.1,0
				c0,0,0,0,0.1,0S0.2-0.7,0.1-0.6C0.2-0.7,0.2-0.7,0.1-0.6C0.2-0.6,0.2-0.6,0.1-0.6z"/>
		</g>
		<g transform="matrix(78.1985,0,0,78.1985,881.775,109.131)">
			<path d="M0.2-0.3V0H0.1v-0.5h0.1v0.1h0c0,0,0-0.1,0.1-0.1c0,0,0.1,0,0.1,0c0,0,0.1,0,0.1,0c0,0,0,0,0.1,0.1c0,0,0,0.1,0,0.1V0
				H0.4v-0.3c0,0,0-0.1,0-0.1c0,0,0,0-0.1,0C0.3-0.4,0.3-0.4,0.2-0.3C0.2-0.4,0.2-0.4,0.2-0.3C0.2-0.4,0.2-0.3,0.2-0.3z"/>
		</g>
		<g transform="matrix(78.1985,0,0,78.1985,930.4,109.131)">
			<path d="M0.3,0C0.3,0,0.2,0,0.2,0c0,0-0.1-0.1-0.1-0.1s0-0.1,0-0.1c0-0.1,0-0.1,0-0.1s0.1-0.1,0.1-0.1c0,0,0.1,0,0.1,0
				c0,0,0.1,0,0.1,0c0,0,0.1,0,0.1,0.1c0,0,0,0.1,0.1,0.1c0,0,0,0.1,0,0.1v0H0.1v-0.1h0.3c0,0,0,0,0-0.1c0,0,0,0,0,0c0,0,0,0-0.1,0
				c0,0,0,0-0.1,0c0,0,0,0,0,0c0,0,0,0,0,0.1v0.1c0,0,0,0.1,0,0.1c0,0,0,0,0,0c0,0,0,0,0.1,0c0,0,0,0,0,0c0,0,0,0,0,0c0,0,0,0,0,0
				l0.1,0c0,0,0,0.1,0,0.1c0,0-0.1,0-0.1,0.1C0.4,0,0.4,0,0.3,0z"/>
		</g>
	</g>
</g>
<g id="Layer_2">
	<text transform="matrix(0.814 0 0 1 2.7393 96.8574)" class="st2 st3">North Forest Games</text>
</g>
</svg>
